<svg width="200" height="100" fill="none" xmlns="http://www.w3.org/2000/svg"><path d="M123.778 49.111l3.667 16.222 23.777-11.889-27.444-4.333zM130.556 24.556L124 48.11l26.667 4.222-20.111-27.777zM101.333 21l28.445 3.444-6.667 24.223L101.333 21zM101.111 25.667h3.334l8.889 11.444-12.223-11.444zM152.111 53.222l-8.333-11.444 13.333-2.556-5 14zM150.667 56.444l.888-2.444-20.888 10.667 20-8.223zM123.222 49.556l4.334 19.666-13 10.445 8.666-30.111zM155.889 45.111h7.666l-5.666-5.667-2 5.667zM35.111 41.667c.334 0 .778.222 1.111.222.334 0 .778 0 1.112-.222v12.11c1.222-2 2.666-3.444 4.888-3.444 4 0 5.778 4 5.778 7.667 0 4.333-2.333 8.556-6.333 8.556-2.333 0-3.445-1.445-4-2.334-.778.556-1.222 1.223-2 2h-.556V41.667zm2.445 17.889c0 3.666 1.444 6 4 6 3.222 0 4.222-4.334 4.222-7.445 0-3.666-1.111-6.333-4-6.333-3.333 0-4.222 4-4.222 7.778zM58.778 49.556l-2.334 3.11c2.334 3.223 4.667 6.556 6.89 10l2.333 3.667v.223c-.556 0-1.112-.223-1.667-.223-.556 0-1.111 0-1.667.223-.555-1.111-1.222-2.223-2-3.223L54.223 54c-.223-.222-.556-.222-.556-.222v12.667c-.556 0-.89-.223-1.223-.223-.333 0-.889 0-1.222.223V41.667c.334 0 .89.222 1.222.222.334 0 .778 0 1.223-.222v11.222c0 .222.333 0 .777-.222.556-.556 1.111-1.223 1.445-1.778l7.11-9.222c.334 0 .779.222 1.112.222.333 0 .778 0 1.111-.222l-6.444 7.889zm18.666 14.222c0 1.222 0 2 1.667 1.444V66c-.222.222-.556.222-.889.333-1.444.334-2.666 0-2.889-2l-.222.334c-1.222 1.444-2.556 2.222-4.222 2.222-2 0-3.778-1.667-3.778-4 0-3.778 2.556-4.222 5.222-4.667 2.222-.333 3.111-.555 3.111-2.222 0-2.333-1.222-3.778-3.222-3.778S69 53.89 68.778 54.556h-.334v-1.778C69.89 51.667 71.334 51 73 51c2.889 0 4.555 1.778 4.555 5.444-.11-.11-.11 7.334-.11 7.334zm-2.222-5.445l-1.11.223c-2 .333-4.89.777-4.89 3.777 0 2 1.111 3.112 2.667 3.112.778 0 1.778-.556 2.333-1.223.222-.222.778-.777.778-1.11v-4.668h.222v-.11zm7.222 4.89c.778 1.222 2 2.333 3.223 2.333 1.444 0 2.666-1.223 2.666-3.111 0-4.334-6.666-1.667-6.666-7.223 0-3.11 2-4.889 4.666-4.889 1.445 0 2.667.556 3.222.89a14.368 14.368 0 00-.777 2.333h-.223c-.333-.89-1.444-2-2.333-2-1.444 0-2.555.889-2.555 2.666 0 4.222 6.666 2 6.666 7.222 0 3.445-2.666 5.223-5.222 5.223-1.111 0-2.556-.334-3.667-1.111.223-.778.556-1.667.556-2.334h.444zm11.778-21.556c.334 0 .778.222 1.111.222.334 0 .778 0 1.111-.222v12c.89-2 2.556-3.223 4.556-3.223 3.222 0 4.556 2.223 4.556 6.334v9.444c-.334 0-.778-.222-1.112-.222-.333 0-.777 0-1.111.222v-8.666c0-3.667-.777-5.445-3.111-5.445-2.555 0-3.778 1.778-3.778 5.222v8.89c-.333 0-.777-.223-1.11-.223-.334 0-.779 0-1.112.222V41.667z" fill="#fff"/></svg>