<svg width="200" height="100" fill="none" xmlns="http://www.w3.org/2000/svg"><path d="M74.857 61.615c3.644 4.51 7.11 4.415 9.908 3.191 2.567-1.137 3.91-4.15 3.465-7.52-.06.025-.18.025-.18.085-1.643 4.005-5.792 4.57-9.044 3.67-2.892-.778-4.389-2.865-4.834-5.732a23.267 23.267 0 01-.24-3.191c-.034-4.33 0-8.633 0-13.048H79.1c.035.385.06.804.06 1.223V50.86c0 .744.06 1.489.18 2.242.42 2.806 2.148 3.91 4.954 3.166 2.267-.6 3.79-2.687 3.944-5.767.146-3.286.12-6.572.146-9.848v-1.61h5.014c.06.18.094.36.12.566 0 6.417.145 12.834-.06 19.26-.266 7.58-6.717 12.21-14.186 10.447-2.482-.6-4.75-1.583-6.537-3.466-.54-.564-.625-.984-.06-1.608.778-.779 1.403-1.669 2.182-2.627zM43.746 39.318v3.285c-1.608-2.327-3.91-3.79-6.477-3.79-4.808 0-8.718 5.168-8.718 11.525s3.91 11.525 8.719 11.525c2.566 0 4.868-1.463 6.476-3.79v3.79H49V39.318h-5.254zm-4.988 17.788c-2.832 0-5.168-3.046-5.168-6.802 0-3.757 2.302-6.811 5.168-6.811 2.867 0 5.168 3.046 5.168 6.81 0 3.765-2.301 6.803-5.168 6.803zM135.289 39.318v3.285c-1.583-2.327-3.911-3.79-6.478-3.79-4.808 0-8.718 5.168-8.718 11.525s3.91 11.525 8.718 11.525c2.567 0 4.869-1.463 6.478-3.79v3.79h5.253V39.318h-5.253zm-4.963 17.788c-2.841 0-5.168-3.046-5.168-6.802 0-3.757 2.302-6.811 5.168-6.811s5.168 3.046 5.168 6.81c0 3.765-2.327 6.803-5.168 6.803zM190.219 39.318v3.285c-1.583-2.327-3.91-3.79-6.477-3.79-4.808 0-8.719 5.168-8.719 11.525s3.911 11.525 8.719 11.525c2.567 0 4.869-1.463 6.477-3.79v3.79h5.254V39.318h-5.254zm-4.954 17.788c-2.841 0-5.168-3.046-5.168-6.802 0-3.757 2.302-6.811 5.168-6.811s5.168 3.046 5.168 6.81c0 3.765-2.327 6.803-5.168 6.803zM144.418 61.855h5.382v-23.05h-5.382v23.05zM150.425 33.311A3.314 3.314 0 00147.113 30a3.314 3.314 0 00-3.311 3.311 3.308 3.308 0 003.311 3.312 3.31 3.31 0 003.312-3.312zM109.252 39.164c-2.507 0-4.774 1.309-6.391 3.43v-3.79h-5.288V70h5.288V58.45c1.608 2.121 3.884 3.43 6.391 3.43 4.929 0 8.924-5.074 8.924-11.345 0-6.272-4.004-11.371-8.924-11.371zm-1.497 17.942c-2.242 0-4.124-1.703-4.894-4.15v-4.834c.779-2.422 2.687-4.15 4.894-4.15 2.926 0 5.288 2.926 5.288 6.571 0 3.645-2.387 6.571-5.288 6.571v-.008zM67.156 46.958l3.765-1.968c-.06-1.728-1.224-3.31-2.687-4.235-1.463-.924-3.226-1.309-4.988-1.497-2.807-.3-5.818-.06-8.12 1.523-2.302 1.583-3.67 4.868-2.361 7.341 1.078 2.062 3.465 3.012 5.732 3.431 2.267.42 4.655.565 6.691 1.609.505.265 1.044.658 1.078 1.223.034.565-.36 1.018-.744 1.378-2.687 2.241-6.691 1.882-8.924-.805-.625-.778-1.104-1.668-1.318-2.66l-4.15 2.181c-.864.48 2.362 4.484 2.781 4.834 3.072 2.687 7.7 3.106 11.491 1.849 2.66-.899 5.168-2.867 5.698-5.613a5.845 5.845 0 00-1.369-4.929c-1.283-1.403-3.165-2.062-5.048-2.447-1.882-.385-3.765-.504-5.587-1.078-.778-.24-1.668-.778-1.643-1.608.026-.745.864-1.224 1.583-1.463 1.523-.505 3.192-.72 4.749-.266 1.549.445 2.952 1.677 3.371 3.192v.008zM168.606 46.958l3.765-1.968c-.06-1.728-1.223-3.31-2.687-4.235-1.463-.924-3.225-1.309-4.988-1.497-2.806-.3-5.818-.06-8.12 1.523-2.301 1.583-3.67 4.868-2.361 7.341 1.078 2.062 3.465 3.012 5.733 3.431 2.267.42 4.654.565 6.69 1.609.505.265 1.044.658 1.079 1.223.025.565-.36 1.018-.745 1.378-2.686 2.241-6.691 1.882-8.924-.805-.624-.778-1.104-1.668-1.309-2.66l-4.15 2.181c-.864.48 2.362 4.484 2.772 4.834 3.072 2.687 7.701 3.106 11.491 1.849 2.661-.899 5.168-2.867 5.699-5.613a5.759 5.759 0 00-1.403-4.929c-1.284-1.403-3.166-2.062-5.049-2.447-1.882-.385-3.764-.479-5.552-1.044-.779-.239-1.669-.778-1.643-1.608.025-.744.864-1.224 1.583-1.463 1.523-.505 3.191-.719 4.748-.265 1.549.444 2.952 1.642 3.371 3.165zM24.067 42.715s-3.91-5.973-12.389-2.987c0 0-4.594 1.25-6.657 8.6 0 0 4.244 6.776 14.572 4.594 0 0 8.838-2.302 4.474-10.207zm-5.552 5.972c-1.729.804-4.364.599-6.178.12-.12-.035-2.481-.865-2.362-1.079 1.729-3.191 6.238-6.117 9.378-2.866.325.3.565.719.684 1.138.266 1.13-.538 2.242-1.522 2.687z" fill="#fff"/><path d="M5.047 50.543s-1.018 8 6.417 10.627c7.435 2.627 13.288-2.182 15.016-5.168l-4.235-2.507s-3.311 6.87-12.834 2.422c0 0-3.466-2.028-4.364-5.374z" fill="#fff"/></svg>