<svg width="200" height="100" fill="none" xmlns="http://www.w3.org/2000/svg"><path d="M19.81 37.907v17.436c0 2.532-.847 4.22-2.258 5.625-1.41 1.407-3.388 1.97-5.647 1.97-2.541 0-4.235-.563-5.93-1.97C4.849 59.844 4 57.875 4 55.343h5.083c0 1.125.282 1.97.846 2.532.564.562 1.13.844 2.258.844.847 0 1.695-.282 1.977-.844.282-.563.564-1.407.564-2.25v-17.72h5.083l-.001.002zM42.396 54.5h-14.68c0 1.405.564 2.531 1.41 3.374 1.131.844 2.26 1.407 3.389 1.407 1.976 0 3.105-.844 3.952-2.532h5.365c-.565 1.97-1.694 3.375-3.388 4.781-1.694 1.407-3.671 1.97-5.929 1.97a9.779 9.779 0 01-5.083-1.407c-1.41-.844-2.823-1.97-3.67-3.656-.847-1.688-1.129-3.374-1.129-5.344 0-1.969.282-3.938 1.13-5.343.847-1.407 1.976-2.813 3.387-3.657 1.412-.843 3.39-1.124 5.083-1.124 1.976 0 3.67.28 5.081 1.124a9.713 9.713 0 013.388 3.376c.848 1.406 1.13 3.093 1.13 5.062.564.844.564 1.406.564 1.969zm-5.082-3.376c0-1.406-.564-2.25-1.41-3.093-.848-.844-1.977-1.125-3.389-1.125-1.13 0-2.26.563-3.105 1.125-.848.563-1.412 1.97-1.694 3.093h9.598zm12.988-3.936v9.562c0 .562.282 1.125.564 1.406.282.28.848.563 1.694.563h2.259v4.218h-3.105c-4.236 0-6.494-1.969-6.494-6.187v-9.562h-2.259v-3.937h2.258v-5.063h5.083v4.78h4.517v4.22h-4.517zm9.882 14.906c-1.412-.843-2.824-1.97-3.671-3.656-.846-1.688-1.41-3.376-1.41-5.344 0-1.969.563-3.937 1.41-5.343.847-1.688 2.259-2.812 3.67-3.656 1.411-.844 3.388-1.407 5.083-1.407 1.975 0 3.67.563 5.08 1.407 1.412.844 2.824 1.968 3.671 3.656.848 1.687 1.411 3.374 1.411 5.343 0 1.97 0 3.937-.846 5.344-.847 1.406-2.258 2.813-3.67 3.656-1.412.844-3.388 1.406-5.365 1.406-1.976-.28-3.67-.562-5.363-1.406zm7.905-3.656a6.584 6.584 0 001.975-1.97c.566-.843.848-1.967.848-3.092 0-1.97-.565-3.375-1.412-4.22-.847-.843-2.259-1.405-3.67-1.405s-2.542.562-3.67 1.406c-1.13.563-1.694 1.97-1.694 3.937 0 1.97.564 3.375 1.41 4.22.848 1.124 2.26 1.405 3.673 1.405.846.28 1.692 0 2.54-.281zm26.82-13.22c1.411 1.407 2.259 3.376 2.259 6.188v11.531h-5.083V51.969c0-1.689-.282-2.813-1.128-3.657-.848-.843-1.977-1.406-3.106-1.406-1.412 0-2.541.563-3.389 1.406-.846.844-1.41 2.25-1.41 3.656v10.968h-5.083V43.25h5.083v2.532c.564-.844 1.41-1.407 2.541-1.97 1.129-.562 2.258-.843 3.387-.843 2.541 0 4.517.56 5.929 2.248zm12.987-1.405c1.128-.562 2.541-.844 3.952-.844 1.694 0 3.105.282 4.517 1.124 1.412.844 2.541 1.97 3.389 3.657.846 1.407 1.128 3.375 1.128 5.344 0 1.968-.282 3.656-1.128 5.343-.848 1.688-1.977 2.812-3.389 3.656-1.41.844-2.823 1.407-4.517 1.407-1.411 0-2.824-.282-3.952-.844-1.131-.563-1.977-1.407-2.823-2.25v2.812H99.99V36.5h5.083v9.562c.846-.844 1.693-1.689 2.823-2.25zM115.237 50c-.566-.844-1.131-1.688-1.977-1.97-.847-.562-1.694-.562-2.542-.562-.846 0-1.694.28-2.541.563-.846.28-1.411 1.125-1.975 1.969-.565.843-.847 1.968-.847 3.093s.282 2.25.847 3.093c.564.844 1.129 1.688 1.976 1.97.846.562 1.694.562 2.541.562s1.694-.282 2.542-.844a6.585 6.585 0 001.974-1.97c.566-.843.848-1.967.848-3.093a35.28 35.28 0 00-.846-2.811zm8.187-2.251c.845-1.688 1.975-2.813 3.386-3.657 1.41-.843 2.823-1.124 4.517-1.124 1.412 0 2.824.28 3.953.844 1.129.561 1.976 1.405 2.824 2.25V43.25h5.081v19.968h-5.081v-2.813c-.566.844-1.412 1.688-2.824 2.25-1.129.563-2.541.844-3.953.844-1.694 0-3.105-.562-4.517-1.406-1.412-.844-2.541-1.97-3.388-3.656-.847-1.688-1.129-3.374-1.129-5.344-.282-1.969.283-3.938 1.131-5.343zM136.975 50c-.282-.844-1.129-1.688-1.977-1.97-.846-.28-1.694-.561-2.54-.561-.847 0-1.694.28-2.541.562a6.57 6.57 0 00-1.976 1.97c-.566.842-.848 1.967-.848 3.092 0 1.126.282 2.25.848 3.094.564.844 1.128 1.687 1.976 1.969.847.28 1.694.844 2.541.844.846 0 1.694-.282 2.54-.563a6.593 6.593 0 001.977-1.97c.564-.843.847-1.967.847-3.092s-.283-2.532-.847-3.376zm25.975-4.782c1.411 1.407 2.258 3.657 2.258 6.188v11.531h-5.081V51.969c0-1.689-.284-2.813-1.13-3.657-.847-.843-1.976-1.406-3.105-1.406a4.684 4.684 0 00-3.388 1.406c-.848.844-1.13 1.97-1.13 3.656v10.968h-5.082V43.25h5.082v2.532c.565-.844 1.412-1.407 2.542-1.97 1.128-.562 2.258-.843 3.387-.843 2.258 0 4.235.56 5.647 2.248zm17.222 17.719l-6.776-8.437v8.438h-5.081V36.5h5.081v15.187l6.776-8.438h6.494l-8.752 9.844 8.752 9.843-6.494.001zm13.645-5.03a2.563 2.563 0 100 5.126 2.563 2.563 0 000-5.125zm0 4.69a2.128 2.128 0 11-.001-4.255 2.128 2.128 0 01.001 4.256zm.501-1.914a.69.69 0 00.447-.681c0-.408-.26-.75-.824-.75h-.89a.05.05 0 00-.018.003.046.046 0 00-.025.025.053.053 0 00-.003.018v2.344c0 .024.02.046.046.046h.311a.048.048 0 00.033-.013.049.049 0 00.013-.033v-.891h.507l.427.912c.004.007.01.014.017.018a.048.048 0 00.024.006h.354a.04.04 0 00.022-.005.041.041 0 00.017-.016.057.057 0 00.007-.022.08.08 0 00-.004-.021l-.461-.94zm-.444-.253h-.466v-.847h.477c.275 0 .462.145.462.432 0 .268-.17.415-.473.415z" fill="#fff"/></svg>