<svg width="200" height="100" viewBox="0 0 200 100" fill="none" xmlns="http://www.w3.org/2000/svg">
<path d="M182.332 35.1824C181.22 33.7872 179.53 33.0917 177.265 33.0917C174.999 33.0917 173.311 33.7893 172.2 35.1824C171.086 36.5756 170.529 38.2226 170.529 40.1235C170.529 42.0244 171.086 43.7098 172.2 45.0859C173.311 46.4577 175.001 47.1447 177.265 47.1447C179.528 47.1447 181.22 46.4577 182.332 45.0859C183.445 43.7098 184 42.0585 184 40.1235C184 38.1885 183.445 36.5756 182.332 35.1824ZM179.575 43.1786C179.035 43.8933 178.263 44.2539 177.252 44.2539C176.241 44.2539 175.468 43.8933 174.924 43.1786C174.38 42.4639 174.109 41.4441 174.109 40.1235C174.109 38.8029 174.38 37.7874 174.924 37.0748C175.468 36.3622 176.245 36.006 177.252 36.006C178.259 36.006 179.033 36.3622 179.575 37.0748C180.115 37.7874 180.386 38.805 180.386 40.1235C180.386 41.442 180.115 42.4639 179.575 43.1786Z" fill="white"></path>
<path d="M153.895 34.0155C152.766 33.4438 151.476 33.1558 150.023 33.1558C147.789 33.1558 146.212 33.7382 145.293 34.9009C144.715 35.6455 144.393 36.597 144.316 37.7533H147.655C147.736 37.2413 147.9 36.8381 148.147 36.5394C148.491 36.1362 149.078 35.9335 149.903 35.9335C150.641 35.9335 151.2 36.0359 151.584 36.2429C151.964 36.4477 152.156 36.8232 152.156 37.3651C152.156 37.8109 151.909 38.1352 151.412 38.3486C151.134 38.4702 150.673 38.5705 150.029 38.6515L148.845 38.7966C147.501 38.9673 146.481 39.251 145.79 39.6478C144.527 40.3753 143.896 41.553 143.896 43.1787C143.896 44.431 144.286 45.3996 145.073 46.0823C145.856 46.7672 146.852 47.053 148.056 47.1085C155.602 47.4477 155.519 43.1318 155.587 42.2357V37.2712C155.587 35.6775 155.021 34.5937 153.895 34.0177V34.0155ZM152.141 41.5509C152.118 42.7072 151.787 43.503 151.151 43.9403C150.513 44.3777 149.82 44.5953 149.065 44.5953C148.587 44.5953 148.182 44.4609 147.849 44.2006C147.516 43.9382 147.35 43.5094 147.35 42.9184C147.35 42.257 147.623 41.7685 148.167 41.4506C148.489 41.265 149.018 41.1071 149.756 40.9812L150.543 40.834C150.936 40.7594 151.243 40.6783 151.469 40.593C151.698 40.5119 151.917 40.4009 152.137 40.2623V41.5487L152.141 41.5509Z" fill="white"></path>
<path d="M136.703 36.1119C137.567 36.1119 138.198 36.3785 138.61 36.9119C138.889 37.3045 139.064 37.7503 139.133 38.2432H142.856C142.653 36.3636 141.996 35.0537 140.884 34.3112C139.771 33.5709 138.345 33.1997 136.602 33.1997C134.552 33.1997 132.944 33.8291 131.779 35.0857C130.614 36.3444 130.029 38.1045 130.029 40.366C130.029 42.3671 130.556 44.0013 131.612 45.2579C132.668 46.5145 134.313 47.1439 136.549 47.1439C138.785 47.1439 140.479 46.3908 141.618 44.8803C142.333 43.9459 142.734 42.9538 142.817 41.9063H139.107C139.03 42.5997 138.815 43.165 138.454 43.6003C138.098 44.0333 137.494 44.2531 136.641 44.2531C135.44 44.2531 134.62 43.7048 134.187 42.6061C133.948 42.0194 133.827 41.2449 133.827 40.2785C133.827 39.312 133.948 38.4565 134.187 37.84C134.64 36.69 135.478 36.1119 136.703 36.1119Z" fill="white"></path>
<path d="M128.914 36.7075C129.083 36.7161 129.275 36.731 129.497 36.7566V33.2257C129.343 33.2151 129.243 33.2108 129.2 33.2044C129.155 33.2001 129.102 33.198 129.036 33.198C121.388 33.198 121.842 39.9674 121.842 39.9674V46.8457H125.313V40.3962C125.313 39.3381 125.448 38.5572 125.71 38.0473C126.186 37.1449 127.118 36.6926 128.505 36.6926C128.609 36.6926 128.746 36.699 128.914 36.7075Z" fill="white"></path>
<path d="M109.145 45.5545C110.485 46.634 112.034 47.178 113.787 47.178C115.912 47.178 117.566 46.5359 118.745 45.2537C119.383 44.5795 119.782 43.9117 119.951 43.2525H116.268C116.123 43.4616 115.968 43.6387 115.795 43.7773C115.304 44.1806 114.638 44.3043 113.855 44.3043C113.115 44.3043 112.533 44.1934 112.008 43.8627C111.142 43.3293 110.653 42.429 110.602 41.1084H120.205C120.217 39.9691 120.181 39.0966 120.089 38.4907C119.932 37.4581 119.577 36.5492 119.04 35.7662C118.44 34.8787 117.679 34.228 116.761 33.8141C115.842 33.4045 114.809 33.1997 113.663 33.1997C111.731 33.1997 110.16 33.8077 108.949 35.0259C107.739 36.2463 107.131 37.9957 107.131 40.2806C107.131 42.7191 107.803 44.4771 109.145 45.5588V45.5545ZM111.607 36.7903C112.095 36.2889 112.78 36.0372 113.666 36.0372C114.478 36.0372 115.161 36.274 115.712 36.7498C116.26 37.2234 116.565 37.9189 116.629 38.8299H110.692C110.815 37.9722 111.125 37.2938 111.609 36.7903H111.607Z" fill="white"></path>
<path d="M102.571 38.8652V46.8464H105.739V38.9399C105.739 35.5413 103.7 33.154 100.237 33.154C98.6263 33.154 97.2332 33.8602 96.2966 34.9909C95.4069 33.8602 94.0373 33.154 92.354 33.154C88.9639 33.154 86.7793 35.6437 86.7793 38.9399V46.8464H89.9517V38.8652C89.9517 37.4081 90.9374 36.4011 92.3561 36.4011C94.4469 36.4011 94.6624 38.1356 94.6624 38.8652V46.8464H97.8348V38.8652C97.8348 37.4081 98.8439 36.4011 100.237 36.4011C102.328 36.4011 102.569 38.1356 102.569 38.8652H102.571Z" fill="white"></path>
<path d="M166.008 31.4653L166.004 35.1839C165.618 34.561 165.114 34.0745 164.493 33.7268C163.875 33.3769 163.164 33.1998 162.364 33.1998C160.63 33.1998 159.249 33.8463 158.213 35.1327C157.176 36.4235 156.657 38.2838 156.657 40.5325C156.657 42.4846 157.184 44.0847 158.236 45.3306C159.288 46.5744 161.351 47.1206 163.183 47.1206C169.573 47.1206 169.498 41.6419 169.498 41.6419V29.0311C169.498 29.0311 166.006 28.6577 166.006 31.4653H166.008ZM165.34 43.2078C164.835 43.9332 164.09 44.2959 163.115 44.2959C162.14 44.2959 161.413 43.9289 160.933 43.2014C160.453 42.4696 160.214 41.4072 160.214 40.1911C160.214 39.0604 160.448 38.1174 160.92 37.3558C161.391 36.5941 162.13 36.2122 163.139 36.2122C163.8 36.2122 164.38 36.4213 164.882 36.8395C165.695 37.5328 166.104 38.7788 166.104 40.3895C166.104 41.5416 165.848 42.4824 165.34 43.2078Z" fill="white"></path>
<path d="M94.1139 52.1536C91.2551 52.0192 89.8129 52.6997 88.872 53.4187C87.5728 54.4107 86.7812 55.8786 86.7812 58.2232V70.2793H88.4624C88.9126 70.2793 89.3627 70.1236 89.6934 69.8185C90.0646 69.4771 90.2502 69.059 90.2502 68.5683V64.0625C90.6599 64.7686 91.1996 65.2871 91.8823 65.6241C92.5288 65.925 93.2755 66.0764 94.1246 66.0764C95.7225 66.0764 97.0346 65.4407 98.0522 64.1627C99.072 62.8507 99.5819 61.1439 99.5819 59.0297C99.5819 56.9154 99.0998 55.4092 97.9434 54.0011C97.009 52.8619 95.5881 52.2197 94.116 52.1536H94.1139ZM95.298 62.0485C94.7881 62.7547 94.0904 63.1067 93.2072 63.1067C92.2557 63.1067 91.5239 62.7568 91.014 62.0485C90.5041 61.4106 90.2481 60.4591 90.2481 59.179C90.2481 57.8072 90.4849 56.7981 90.9607 56.1602C91.4727 55.4583 92.1874 55.102 93.1048 55.102C94.0222 55.102 94.7881 55.4561 95.298 56.1602C95.81 56.8663 96.0639 57.8712 96.0639 59.179C96.0639 60.3908 95.81 61.3423 95.298 62.0485Z" fill="white"></path>
<path d="M123.936 53.3949C122.757 52.501 121.551 52.0337 119.48 52.0892C117.376 52.1468 115.846 52.7356 114.895 54.0242C113.943 55.315 113.47 57.0004 113.47 59.0762C113.47 60.8534 113.828 62.285 114.545 63.3794C115.264 64.4675 116.124 65.2142 117.126 65.6131C118.125 66.0163 119.136 66.0996 120.156 65.867C121.174 65.6302 121.984 65.0478 122.586 64.109V64.9603C122.518 66.0334 122.26 66.8377 121.811 67.3753C121.357 67.9087 120.858 68.2373 120.305 68.3546C119.759 68.4698 119.204 68.4058 118.656 68.1519C118.104 67.9023 117.696 67.5396 117.429 67.0724H113.773C114.72 69.9184 116.42 71.175 119.484 71.3969C124.425 71.7532 125.999 67.5695 125.995 65.3123V58.2186C125.995 55.8739 125.231 54.372 123.941 53.3906L123.936 53.3949ZM122.484 60.3627C122.349 61.1478 122.134 61.7281 121.831 62.0951C121.197 62.9655 120.209 63.2749 118.878 63.0274C117.54 62.7735 116.873 61.4913 116.873 59.1808C116.873 58.1077 117.071 57.1519 117.474 56.3113C117.875 55.4771 118.641 55.0547 119.776 55.0547C120.61 55.0547 121.246 55.3576 121.679 55.9593C122.114 56.563 122.392 57.25 122.507 58.0223C122.624 58.7925 122.614 59.5733 122.481 60.3606L122.484 60.3627Z" fill="white"></path>
<path d="M110.501 53.0446C109.372 52.475 108.082 52.1848 106.629 52.1848C104.395 52.1848 102.821 52.7672 101.903 53.9321C101.327 54.6745 101.003 55.6261 100.926 56.7824H104.265C104.346 56.2725 104.51 55.8671 104.756 55.5706C105.099 55.1674 105.686 54.9626 106.512 54.9626C107.252 54.9626 107.811 55.065 108.193 55.2719C108.572 55.4767 108.762 55.8522 108.762 56.3941C108.762 56.8379 108.515 57.1664 108.018 57.3755C107.74 57.4971 107.28 57.5974 106.635 57.6784L105.453 57.8214C104.109 57.9921 103.087 58.2758 102.4 58.6726C101.135 59.4001 100.506 60.5757 100.506 62.2013C100.506 63.4537 100.896 64.4223 101.684 65.105C102.467 65.7898 103.463 66.0757 104.668 66.1312C112.212 66.4682 112.127 62.1544 112.195 61.2584V56.2938C112.195 54.7023 111.634 53.6185 110.505 53.0425L110.501 53.0446ZM108.747 60.5778C108.726 61.7363 108.393 62.5299 107.76 62.9673C107.124 63.4046 106.428 63.6222 105.673 63.6222C105.195 63.6222 104.792 63.4878 104.457 63.2275C104.124 62.9651 103.958 62.5384 103.958 61.9475C103.958 61.2861 104.231 60.7975 104.775 60.4818C105.099 60.2962 105.626 60.1383 106.364 60.0124L107.154 59.8674C107.546 59.7927 107.856 59.7138 108.077 59.6284C108.306 59.5452 108.528 59.4343 108.747 59.2956V60.5821V60.5778Z" fill="white"></path>
<path d="M134.033 52.0482C131.772 52.0482 130.082 52.7437 128.97 54.1411C127.857 55.5343 127.3 57.1792 127.3 59.0801C127.3 60.981 127.857 62.6642 128.97 64.0403C130.082 65.41 131.772 66.097 134.033 66.097C136.294 66.097 137.986 65.41 139.102 64.0403C140.214 62.6642 140.768 61.013 140.768 59.0801C140.768 57.1472 140.214 55.5343 139.102 54.1411C137.988 52.7459 136.299 52.0482 134.033 52.0482ZM136.343 62.1309C135.804 62.8477 135.031 63.2083 134.024 63.2083C133.017 63.2083 132.241 62.8477 131.697 62.1309C131.151 61.4162 130.88 60.3985 130.88 59.0779C130.88 57.7573 131.151 56.7418 131.697 56.0292C132.239 55.3167 133.015 54.9604 134.024 54.9604C135.034 54.9604 135.806 55.3167 136.343 56.0292C136.883 56.7418 137.152 57.7573 137.152 59.0779C137.152 60.3985 136.883 61.4162 136.343 62.1309Z" fill="white"></path>
<path d="M77.2987 48.7936C77.2069 37.7509 63.4099 28.8608 46.481 29.0016C29.5542 29.1425 15.9087 38.2608 16.0005 49.3035C16.0026 49.5894 16.0047 50.3788 16.0069 50.4769C16.105 62.1917 28.176 71.581 46.833 71.4252C65.6031 71.2695 77.4053 61.6818 77.3072 49.9649L77.2965 48.7894L77.2987 48.7936ZM46.8117 67.8922C30.5356 68.0288 17.272 59.6977 17.1845 49.2865C17.1803 48.8662 17.2059 48.4523 17.2464 48.0384L17.4341 46.7647C17.4619 46.6282 17.5067 46.4959 17.5387 46.3594C18.2086 46.5535 18.695 46.6879 18.9297 46.7413C26.4181 48.448 29.3942 50.223 30.2775 50.8567C30.8556 50.3404 31.6152 50.0481 32.3832 50.0481H32.3853C33.2835 50.0481 34.1262 50.4321 34.7257 51.102C35.6666 50.4961 36.8122 50.3681 37.9728 50.7713C38.7323 51.0316 39.3318 51.5159 39.7159 52.1773C40.4903 51.9298 41.3671 51.9874 42.244 52.365C43.9315 53.0904 44.1769 54.6521 44.1428 55.642C46.1482 55.6847 47.7653 57.3296 47.7632 59.3435C47.7632 59.8235 47.6672 60.3057 47.4837 60.7452C48.0406 61.0247 48.9899 61.4151 49.8305 61.3127C50.6284 61.2124 50.8674 60.9564 50.9229 60.8796C50.9292 60.8732 50.9335 60.8647 50.9378 60.8583L48.6785 58.3621C48.2838 57.9909 48.1835 57.6112 48.4203 57.3509C48.5185 57.2399 48.6571 57.1781 48.8086 57.1781C49.071 57.1781 49.295 57.368 49.4593 57.5066C50.6839 58.5285 52.1517 60.0433 52.1666 60.0582L52.2029 60.0988C52.2349 60.1372 52.3288 60.214 52.6403 60.2694C52.7448 60.2886 52.86 60.2993 52.9795 60.2993C53.2078 60.2993 53.7859 60.2609 54.2084 59.9153C54.2852 59.8491 54.3684 59.7702 54.4473 59.687L54.5348 59.5739C54.9188 59.0832 54.554 58.584 54.4772 58.488L51.7272 55.3945C51.7272 55.3945 51.6184 55.2921 51.5266 55.1662C51.2279 54.7673 51.3623 54.5049 51.469 54.3833C51.5714 54.2745 51.7058 54.219 51.8466 54.219C52.092 54.219 52.3203 54.3811 52.5293 54.5561C53.2654 55.1726 54.266 56.1562 55.2324 57.1077L55.8404 57.7093C55.9151 57.7584 56.2799 57.9824 56.7877 57.9845C57.193 57.9845 57.6091 57.8458 58.023 57.5728C58.5969 57.1994 58.8635 56.7407 58.8379 56.1754C58.7953 55.6804 58.3835 55.2857 58.3792 55.2814L54.5966 51.4754C54.2062 51.1426 54.091 50.7393 54.315 50.462C54.411 50.3425 54.571 50.2806 54.7119 50.2764C54.9572 50.2764 55.1727 50.4385 55.3882 50.6199C56.0602 51.1831 57.4896 52.4632 59.6358 54.4217C59.7596 54.5347 59.8364 54.603 59.8471 54.6137C59.8471 54.6137 60.2396 54.8846 60.8178 54.8868C61.1997 54.8868 61.5837 54.7673 61.957 54.5305C62.3667 54.2702 62.6035 53.8947 62.6248 53.4765C62.6632 52.7149 62.1298 52.2434 62.1256 52.2391C61.1165 51.3559 52.4845 43.8056 50.477 42.2952C49.3164 41.4204 48.6721 41.1922 48.0064 41.1068C47.936 41.0962 47.8614 41.0962 47.7824 41.094C47.5157 41.094 47.1723 41.141 46.8906 41.2156C45.8666 41.4951 44.5225 42.4509 43.5731 43.204C42.3379 44.1833 41.1815 45.1028 40.0529 45.3545C39.6988 45.4335 39.3105 45.4825 38.9094 45.474C37.8448 45.4719 36.6949 45.1774 36.0485 44.7401C35.6879 44.4969 35.4276 44.2067 35.2975 43.8995C34.9625 43.1187 35.4639 42.4914 35.6943 42.2567L38.2907 39.4534C38.3099 39.4342 38.327 39.4171 38.344 39.4001C37.9707 39.4897 37.6037 39.5899 37.2112 39.7009C36.2682 39.9633 35.3146 40.23 34.346 40.23H34.3417C34.0174 40.23 33.6974 40.2022 33.3859 40.1788L33.0744 40.1553C31.7133 40.0678 27.3867 38.9691 23.5721 37.4352C23.5763 37.4309 23.5806 37.4266 23.5849 37.4245L24.6388 36.6159C30.0001 32.7373 37.7957 30.2604 46.4938 30.1878C55.4778 30.1132 63.5401 32.62 68.9782 36.6309L70.0236 37.4437C70.094 37.5013 70.1559 37.5632 70.2241 37.6208L69.8828 37.7786C66.8682 39.1569 64.0542 39.8289 61.2786 39.8289H61.2658C58.599 39.8246 55.945 39.1846 53.3806 37.9301C53.0883 37.7936 50.4258 36.5925 47.7376 36.5882C47.6693 36.5882 47.5968 36.5882 47.5285 36.5925C43.2446 36.6863 41.3778 38.551 39.4001 40.5223L36.8442 43.2744C36.793 43.3405 36.7696 43.3811 36.761 43.4045C37.0554 43.7374 37.8235 43.9699 38.6555 43.972C39.0118 43.972 39.3681 43.9315 39.7159 43.8547C40.4967 43.6819 41.5656 42.8328 42.6003 42.0135L42.6728 41.9559C43.8206 41.045 45.0068 40.1041 46.2186 39.7222C46.752 39.5515 47.2661 39.4662 47.7483 39.4662H47.7547C48.2752 39.4662 48.6806 39.5665 48.9729 39.6561C49.6129 39.846 50.3404 40.2684 51.4029 41.0706C53.1395 42.3741 59.2241 47.6608 62.7613 50.7543C64.7305 49.886 69.7206 47.8357 75.8607 46.4767C75.8607 46.4767 75.8607 46.4682 75.865 46.4532C75.8735 46.498 75.8884 46.5407 75.897 46.5876L76.0783 47.857C76.1039 48.1685 76.121 48.4821 76.1231 48.7979C76.2106 59.2091 63.0878 67.76 46.8096 67.8965L46.8117 67.8922Z" fill="white"></path>
<path d="M44.1141 57.0105C43.777 57.0105 43.4143 57.1343 43.1754 57.2175C43.0111 57.2729 42.9129 57.3092 42.834 57.3092H42.7828L42.7124 57.2751C42.6612 57.2409 42.6356 57.1919 42.6228 57.1343C42.5524 57.0318 42.5737 56.8718 42.6975 56.5689C42.7039 56.554 43.0772 55.5064 42.7551 54.6019C42.5972 54.2072 42.3028 53.8466 41.7737 53.6183C41.4153 53.4626 41.0675 53.3879 40.7432 53.3858C40.0307 53.3858 39.5741 53.7485 39.3672 53.9682C39.316 54.0216 39.2456 54.0813 39.1517 54.0813C39.1218 54.0813 38.9981 54.0642 38.949 53.9127C38.9234 53.8765 38.9042 53.8274 38.8978 53.757C38.8871 53.6055 38.8551 53.3773 38.7677 53.1319C38.6034 52.7159 38.2727 52.2657 37.6007 52.0588C37.3254 51.9734 37.0524 51.9308 36.7878 51.9308C35.3968 51.9308 34.6416 53.0764 34.6117 53.1255L34.3365 53.5543L34.3258 53.4754C34.3258 53.4754 34.313 53.4839 34.3109 53.4839C34.2533 53.469 34.2448 52.9804 34.2448 52.9804C34.232 52.8716 34.2064 52.765 34.1743 52.6626C33.9162 51.9286 33.2228 51.4124 32.4249 51.4124C31.3945 51.4124 30.5539 52.2508 30.5518 53.2877C30.5518 53.5223 30.6008 53.7463 30.6798 53.9533C30.9656 54.6189 31.627 55.084 32.3951 55.0861C32.8772 55.0861 33.257 54.7917 33.6879 54.5635C33.8053 54.5016 33.9269 54.493 33.9631 54.5443C33.9973 54.5912 34.0079 54.6445 34.0122 54.7021C34.0357 54.7491 34.0485 54.8024 34.0399 54.8685C33.9973 55.1245 33.9397 55.6771 34.1167 56.2553C34.3066 56.8078 34.7205 57.3711 35.5824 57.706C35.8 57.7914 36.0176 57.8319 36.231 57.834C36.6171 57.834 36.9969 57.7018 37.3937 57.4223C37.4897 57.354 37.5623 57.322 37.6305 57.3263C37.6775 57.3305 37.75 57.3455 37.7991 57.4009C37.8375 57.4436 37.8524 57.4948 37.8567 57.546C37.8865 57.6164 37.8908 57.6932 37.878 57.77C37.8567 57.913 37.8481 58.1327 37.9143 58.3823C38.0466 58.7813 38.3772 59.2357 39.1773 59.56C39.4525 59.6731 39.7128 59.7285 39.9539 59.7285C40.483 59.7285 40.8456 59.4618 41.1315 59.1973C41.2318 59.1056 41.3214 59.0437 41.4217 59.0437C41.571 59.0437 41.6307 59.1525 41.6585 59.2613C41.7054 59.3552 41.714 59.4704 41.7161 59.5322C41.7268 59.8267 41.7972 60.1019 41.9038 60.3579C42.2836 61.175 43.1135 61.7382 44.0799 61.7404C45.4048 61.7404 46.4843 60.6651 46.4865 59.3424C46.4865 59.0309 46.4225 58.7343 46.3115 58.4613C45.9382 57.6185 45.0955 57.0233 44.1141 57.0105Z" fill="white"></path>
</svg>