<svg width="200" height="100" fill="none" xmlns="http://www.w3.org/2000/svg"><path d="M54.188 49.314c4.454 1.12 8.19-4.636 8.19-4.636 3.682 5.75 6.661 1.12 6.661 1.12s-2.748 4.636-11.498 4.452l-3.353-.936z" fill="#fff"/><path d="M71.392 39.77s-6.352 13.087-17.268 9.622c0 0 19.928 6.142 27.23-4.817l-9.962-4.806z" fill="#fff"/><path d="M77.639 48.987v17.976H57.258V50.75a10.896 10.896 0 01-1.303-.396V69.16c0 1.845 1.282 3.34 2.865 3.34h17.258c1.582 0 2.864-1.495 2.864-3.34V48.09c-.427.318-.93.656-1.303.898zM57.256 31.137H77.64v10.858l1.303.752v-11.91c0-1.844-1.282-3.337-2.864-3.337h-17.26c-1.58 0-2.863 1.493-2.863 3.338v17.989a5.972 5.972 0 001.303-.327V31.137h-.002zM52.472 46.862v13.06h-8.005V48.17c0-3.286-1.348-4.677-3.455-4.677-2.317 0-4.002 1.559-4.002 5.097v11.334h-8.005V48.167c0-3.285-1.306-4.676-3.455-4.676-2.359 0-4.044 1.559-4.044 5.097v11.334H13.5V37.087h7.627v2.401c1.727-1.853 4.129-2.78 6.826-2.78 3.117 0 5.77 1.136 7.373 3.581 1.812-2.275 4.634-3.581 7.921-3.581 5.309 0 9.226 3.074 9.226 10.153M108.722 48.504c0 7.248-5.013 11.797-11.207 11.797-2.653 0-4.802-.8-6.362-2.401v10.195h-8.005V37.088h7.626v2.273c1.517-1.81 3.75-2.654 6.74-2.654 6.195 0 11.208 4.549 11.208 11.797zm-8.089 0c0-3.453-2.106-5.435-4.803-5.435-2.698 0-4.804 1.982-4.804 5.435 0 3.454 2.108 5.435 4.804 5.435 2.695 0 4.803-1.98 4.803-5.435zM135.642 50.529h-16.599c.675 2.315 2.654 3.664 5.605 3.664 2.232 0 3.706-.631 5.267-1.98l4.213 4.38c-2.191 2.445-5.393 3.708-9.731 3.708-8.133 0-13.398-5.012-13.398-11.84s5.35-11.754 12.555-11.754c6.741 0 12.218 4.296 12.218 11.839 0 .59-.083 1.35-.127 1.981m-16.728-4.213h9.354c-.422-2.402-2.191-3.918-4.677-3.918-2.487 0-4.213 1.514-4.677 3.918zM137.665 57.943l2.401-5.476c2.108 1.304 5.183 2.105 7.963 2.105 2.781 0 3.58-.59 3.58-1.559 0-3.076-13.482.42-13.482-8.722 0-4.298 3.96-7.582 11.124-7.582 3.201 0 6.741.673 9.015 1.938l-2.402 5.433c-2.275-1.263-4.551-1.684-6.573-1.684-2.696 0-3.665.758-3.665 1.6 0 3.162 13.441-.252 13.441 8.806 0 4.215-3.876 7.5-11.292 7.5-3.876 0-7.878-.97-10.112-2.36M186.663 37.088v22.834h-7.625v-2.275c-1.516 1.812-3.75 2.654-6.741 2.654-6.193 0-11.206-4.55-11.206-11.84s5.013-11.754 11.206-11.754c2.654 0 4.803.76 6.362 2.358v-1.979h8.004v.002zm-7.878 11.375c0-3.456-2.105-5.394-4.801-5.394s-4.804 1.938-4.804 5.394c0 3.455 2.106 5.476 4.804 5.476 2.697 0 4.801-1.98 4.801-5.476z" fill="#fff"/></svg>