<svg width="200" height="100" fill="none" xmlns="http://www.w3.org/2000/svg"><path d="M100 20c-33.137 0-60 13.433-60 30s26.863 30 60 30 60.002-13.433 60.002-30S133.135 20 100 20zm0 55.265c-30.52 0-55.263-11.312-55.263-25.265 0-13.953 24.742-25.263 55.263-25.263 30.521 0 55.265 11.31 55.265 25.263 0 13.953-24.742 25.265-55.265 25.265zm-7.565-30.527V40h16.934v4.737h-6.097v15.268h-4.743V44.738h-6.094zM129.795 40v20.005h-4.737l-8.592-11.907v11.907h-4.735V40h4.735l8.592 11.906V40.001h4.737zM70.068 60.006V40h4.737l5.262 8.094 5.262-8.094h4.737v20.005H85.33V48.688l-3.598 5.522h-3.334l-3.598-5.522v11.318h-4.731z" fill="#fff"/></svg>