<svg width="200" height="100" fill="none" xmlns="http://www.w3.org/2000/svg"><path fill-rule="evenodd" clip-rule="evenodd" d="M97.1 34.343a8.67 8.67 0 00-8.669 8.67v28.674a.883.883 0 01-1.766 0V43.013c0-5.764 4.673-10.437 10.436-10.437h.002l8.466.013c5.748.012 10.402 4.674 10.402 10.422v6.104c0 5.764-4.673 10.436-10.437 10.436H93.571a.883.883 0 110-1.766h11.963a8.67 8.67 0 008.671-8.67V43.01a8.656 8.656 0 00-8.639-8.656l-8.465-.012zM116.571 33.456c0-.488.395-.884.883-.884h3.672a4.804 4.804 0 014.804 4.804v21.42a.884.884 0 01-1.767 0v-21.42a3.037 3.037 0 00-3.037-3.037h-3.672a.883.883 0 01-.883-.883z" fill="#fff"/><path d="M124.259 30.137l-1.665-1.666a1.057 1.057 0 010-1.496l1.664-1.665a1.06 1.06 0 011.499 0l1.664 1.665a1.057 1.057 0 010 1.496l-1.665 1.666a1.059 1.059 0 01-1.497 0z" fill="#fff"/><path fill-rule="evenodd" clip-rule="evenodd" d="M131.209 33.437c0-.488.396-.883.883-.883h3.642c2.108 0 4.13.837 5.62 2.327l8.519 8.519a1.942 1.942 0 002.747 0l8.488-8.488a7.948 7.948 0 015.62-2.327h2.961a.883.883 0 110 1.766h-2.961a6.18 6.18 0 00-4.371 1.81l-8.488 8.488a3.709 3.709 0 01-5.245 0l-8.519-8.519a6.18 6.18 0 00-4.371-1.81h-3.642a.883.883 0 01-.883-.883z" fill="#fff"/><path fill-rule="evenodd" clip-rule="evenodd" d="M152.62 48.645a1.942 1.942 0 00-2.747 0l-8.519 8.519a7.948 7.948 0 01-5.62 2.328h-3.642a.883.883 0 010-1.767h3.642c1.64 0 3.212-.65 4.371-1.81l8.519-8.519a3.709 3.709 0 015.245 0l8.488 8.488a6.18 6.18 0 004.371 1.81h2.961a.883.883 0 110 1.766h-2.961a7.948 7.948 0 01-5.62-2.327l-8.488-8.488z" fill="#fff"/><path d="M65.835 64.051a6.802 6.802 0 01-4.84-2.004l-6.988-6.988c-.491-.492-1.346-.49-1.837 0l-7.013 7.014a6.802 6.802 0 01-4.84 2.004H38.94l8.85 8.85a7.078 7.078 0 0010.01 0l8.876-8.876h-.841zM40.317 39.333c1.828 0 3.547.712 4.84 2.004l7.013 7.014a1.3 1.3 0 001.837 0l6.988-6.989a6.802 6.802 0 014.84-2.004h.841L57.8 30.483a7.078 7.078 0 00-10.01 0l-8.85 8.85h1.377z" fill="#fff"/><path d="M74.018 46.7l-5.364-5.364a1.024 1.024 0 01-.38.077h-2.44a4.82 4.82 0 00-3.386 1.403l-6.987 6.988a3.345 3.345 0 01-2.372.981c-.86 0-1.718-.327-2.372-.98l-7.014-7.015a4.819 4.819 0 00-3.386-1.403h-2.999c-.127 0-.247-.03-.36-.072L31.573 46.7a7.078 7.078 0 000 10.01l5.385 5.384c.113-.042.233-.072.36-.072h3a4.82 4.82 0 003.385-1.403l7.014-7.014c1.267-1.266 3.477-1.267 4.744 0l6.988 6.988a4.82 4.82 0 003.385 1.403h2.44c.134 0 .262.03.38.077l5.364-5.364a7.078 7.078 0 000-10.01zM94.83 69.25c-.397 0-.858.095-1.313.2v1.747c.316.116.676.171 1.022.171.876 0 1.291-.295 1.291-1.067 0-.726-.34-1.051-1-1.051zm-1.609 3.245v-3.456h.24l.026.15c.405-.095.966-.22 1.367-.22.326 0 .636.05.896.26.3.246.396.641.396 1.072 0 .451-.15.877-.561 1.112-.285.16-.671.225-1.017.225a3.66 3.66 0 01-1.051-.16v1.017h-.296zM98.346 69.24c-.877 0-1.267.275-1.267 1.046 0 .746.385 1.082 1.267 1.082.871 0 1.262-.27 1.262-1.042 0-.746-.386-1.087-1.262-1.087zm1.127 2.128c-.291.21-.681.27-1.127.27-.456 0-.847-.065-1.132-.27-.32-.225-.45-.596-.45-1.062 0-.46.13-.836.45-1.067.285-.205.676-.27 1.132-.27.45 0 .836.065 1.127.27.325.231.45.606.45 1.062 0 .466-.13.842-.45 1.067zM103.621 71.568l-.977-2.098h-.02l-.961 2.098h-.266l-1.041-2.529h.325l.867 2.123h.02l.941-2.123h.27l.967 2.123h.02l.846-2.123h.316l-1.042 2.53h-.265zM106.817 69.234c-.811 0-1.087.36-1.137.882h2.274c-.025-.576-.321-.882-1.137-.882zm-.01 2.404c-.486 0-.801-.07-1.052-.28-.295-.256-.396-.626-.396-1.052 0-.405.136-.836.471-1.081.281-.195.626-.256.987-.256.325 0 .701.035 1.011.246.366.245.436.676.436 1.166h-2.594c.01.521.18.982 1.162.982.466 0 .901-.075 1.307-.145v.265c-.421.075-.887.155-1.332.155zM109.112 71.568V69.04h.24l.026.15c.535-.134.786-.22 1.257-.22h.035v.28h-.071c-.395 0-.635.056-1.191.201v2.118h-.296zM112.386 69.234c-.811 0-1.087.36-1.137.882h2.274c-.025-.576-.321-.882-1.137-.882zm-.01 2.404c-.486 0-.801-.07-1.052-.28-.295-.256-.396-.626-.396-1.052 0-.405.136-.836.471-1.081.281-.195.626-.256.987-.256.326 0 .701.035 1.011.246.366.245.436.676.436 1.166h-2.594c.01.521.18.982 1.162.982.465 0 .901-.075 1.307-.145v.265c-.421.075-.887.155-1.332.155zM117.07 69.41a3.038 3.038 0 00-1.022-.17c-.876 0-1.292.295-1.292 1.066 0 .731.341 1.052 1.002 1.052.395 0 .856-.096 1.312-.196V69.41zm.055 2.158l-.025-.15c-.406.095-.967.22-1.367.22-.325 0-.636-.045-.897-.26-.3-.246-.395-.641-.395-1.072 0-.45.15-.876.56-1.107.286-.165.672-.23 1.022-.23.351 0 .691.06 1.047.16v-1.156h.295v3.595h-.24zM121.698 69.25c-.396 0-.857.095-1.313.2v1.743c.321.12.677.175 1.022.175.876 0 1.292-.295 1.292-1.067 0-.726-.34-1.051-1.001-1.051zm.756 2.163c-.286.16-.671.225-1.017.225a3.61 3.61 0 01-1.132-.19l-.015.12h-.2v-3.595h.295v1.206c.406-.09.952-.21 1.337-.21.326 0 .637.05.897.26.301.246.396.641.396 1.072 0 .451-.151.877-.561 1.112zM123.407 72.54v-.276c.145.015.281.026.376.026.365 0 .585-.106.791-.522l.095-.2-1.322-2.529h.341l1.131 2.183h.02l1.077-2.183h.335l-1.422 2.84c-.26.516-.541.686-1.056.686-.116 0-.241-.01-.366-.025zM130.324 70.126h-.981v.887h.986c.676 0 .931-.076.931-.446 0-.396-.35-.441-.936-.441zm-.18-1.437h-.801v.9h.806c.666 0 .931-.079.931-.455 0-.4-.335-.445-.936-.445zm1.522 2.64c-.361.23-.796.24-1.593.24h-1.497v-3.431h1.463c.686 0 1.106.01 1.457.22.25.15.35.38.35.681 0 .36-.15.601-.541.762v.02c.441.1.727.325.727.81 0 .331-.121.547-.366.697zM135.027 70.507c-.295-.026-.596-.04-.911-.04-.516 0-.696.105-.696.34 0 .22.15.34.545.34.331 0 .727-.074 1.062-.15v-.49zm.15 1.061l-.02-.15c-.43.105-.931.22-1.372.22-.27 0-.561-.035-.766-.185-.19-.135-.28-.356-.28-.611 0-.286.125-.551.425-.686.266-.125.621-.135.947-.135.265 0 .621.015.916.035v-.046c0-.395-.26-.525-.971-.525-.276 0-.611.014-.932.045v-.511c.356-.03.756-.05 1.087-.05.44 0 .896.035 1.177.235.29.206.345.491.345.867v1.497h-.556zM139.035 71.568v-1.397c0-.46-.235-.626-.656-.626-.31 0-.701.08-1.032.16v1.863h-.706V69.04h.576l.025.16c.446-.114.942-.23 1.353-.23.31 0 .625.045.866.26.2.181.275.431.275.792v1.547h-.701zM141.731 71.638c-.325 0-.681-.045-.941-.265-.311-.25-.401-.646-.401-1.072 0-.4.13-.836.516-1.081.315-.206.706-.25 1.111-.25.291 0 .577.02.892.049v.54a9.11 9.11 0 00-.806-.044c-.672 0-.987.21-.987.791 0 .546.235.781.786.781.321 0 .697-.06 1.062-.13v.52c-.396.081-.826.161-1.232.161zM145.049 69.5c-.671 0-.967.21-.967.786 0 .576.291.822.967.822.666 0 .956-.206.956-.782 0-.576-.285-.826-.956-.826zm1.212 1.873c-.311.21-.716.265-1.212.265-.506 0-.912-.06-1.217-.265-.351-.23-.476-.61-.476-1.067 0-.456.125-.841.476-1.072.305-.205.711-.265 1.217-.265.501 0 .901.06 1.212.266.35.23.47.615.47 1.066 0 .456-.125.842-.47 1.072zM150.808 71.638c-.425 0-.886-.07-1.232-.355-.41-.341-.535-.867-.535-1.433 0-.505.16-1.106.696-1.457.415-.27.931-.325 1.452-.325.381 0 .771.025 1.197.06v.616c-.366-.03-.816-.055-1.167-.055-.977 0-1.392.37-1.392 1.161 0 .807.385 1.168 1.107 1.168.47 0 .996-.096 1.527-.206v.61c-.531.106-1.087.216-1.653.216z" fill="#fff"/><path d="M154.536 69.42c-.586 0-.812.21-.857.596h1.703c-.02-.41-.261-.596-.846-.596zm-.106 2.218c-.415 0-.791-.05-1.071-.28-.301-.25-.406-.626-.406-1.057 0-.386.125-.816.476-1.067.31-.22.706-.265 1.107-.265.36 0 .786.04 1.096.255.406.286.441.727.446 1.247h-2.404c.015.386.22.636.932.636.44 0 .931-.065 1.347-.13v.496c-.486.08-1.017.165-1.523.165z" fill="v"/><path d="M159.219 71.568v-1.397c0-.46-.235-.626-.656-.626-.31 0-.7.08-1.031.16v1.863h-.706V69.04h.576l.025.16c.445-.114.941-.23 1.352-.23.31 0 .626.045.866.26.2.181.276.431.276.792v1.547h-.702zM161.931 71.638c-.341 0-.651-.095-.822-.36-.125-.18-.185-.426-.185-.767v-.946h-.511v-.526h.511l.075-.766h.626v.766h.997v.526h-.997v.811c0 .196.015.36.07.481.075.17.24.235.461.235.165 0 .365-.025.506-.05v.506c-.231.045-.496.09-.731.09zM163.311 71.568V69.04h.576l.025.16c.465-.13.811-.23 1.252-.23.02 0 .05 0 .09.005v.601c-.081-.005-.176-.005-.246-.005-.345 0-.606.04-.991.13v1.868h-.706zM167.821 70.507c-.296-.026-.596-.04-.912-.04-.516 0-.696.105-.696.34 0 .22.15.34.546.34.33 0 .726-.074 1.062-.15v-.49zm.15 1.061l-.02-.15c-.431.105-.932.22-1.373.22-.27 0-.56-.035-.766-.185-.19-.135-.28-.356-.28-.611 0-.286.125-.551.426-.686.265-.125.62-.135.946-.135.266 0 .621.015.917.035v-.046c0-.395-.261-.525-.972-.525-.275 0-.611.014-.932.045v-.511c.356-.03.757-.05 1.087-.05.441 0 .897.035 1.177.235.29.206.346.491.346.867v1.497h-.556zM169.435 67.973h.706v3.595h-.706v-3.595z" fill="#fff"/></svg>