<svg width="200" height="100" fill="none" xmlns="http://www.w3.org/2000/svg"><path fill-rule="evenodd" clip-rule="evenodd" d="M37.011 65.645h.953l-.895 3.71c-.136.543-.105.967.076 1.24.18.272.523.408 1.012.408a1.8 1.8 0 001.212-.408 2.32 2.32 0 00.668-1.24l.89-3.71h.97l-.908 3.798c-.13.716-.5 1.366-1.047 1.845a3.034 3.034 0 01-1.98.623c-.817 0-1.378-.196-1.681-.607-.304-.411-.364-1.026-.168-1.845l.911-3.814h-.013zM41.761 71.754l1.513-6.339 2.879 3.722c.076.107.152.212.228.332.075.12.151.262.24.408l1.016-4.221h.887l-1.513 6.326-2.936-3.808-.236-.317a1.74 1.74 0 01-.18-.364l-1.005 4.235h-.893v.026zM48.448 71.744l1.453-6.099h.968l-1.452 6.099h-.969zM50.793 71.744l1.453-6.099h3.313l-.196.849h-2.345l-.364 1.512h2.348l-.212.861h-2.345l-.683 2.86h-.969v.017zM55.182 71.744l1.453-6.099h.968l-1.452 6.099h-.969zM57.527 71.744l1.456-6.099h3.31l-.196.849h-2.345l-.364 1.528h2.345l-.212.861h-2.345l-.468 1.968h2.345l-.212.893h-3.314zM61.96 71.754l1.453-6.098h1.309a7.466 7.466 0 011.756.136c.301.075.578.227.804.44.275.281.458.64.523 1.028.07.48.044.97-.076 1.44a4.69 4.69 0 01-.605 1.434 3.52 3.52 0 01-1.03 1.031c-.302.208-.64.356-.998.437a6.698 6.698 0 01-1.57.136h-1.57v.016h.005zm1.181-.906h.817c.345.01.69-.022 1.028-.094.234-.059.455-.161.652-.3.275-.198.507-.45.68-.741a3.33 3.33 0 00.409-1.032c.09-.33.116-.673.076-1.013a1.386 1.386 0 00-.333-.74 1.02 1.02 0 00-.523-.304 4.49 4.49 0 00-1.073-.091h-.696l-1.029 4.315h-.008zM72.173 69.006l-.649 2.748h-.908l1.453-6.098h1.468c.314-.008.628.017.937.076.177.033.34.117.47.24.162.154.268.356.302.576.041.261.032.528-.029.786a2.531 2.531 0 01-.348.803 2.094 2.094 0 01-.576.573 2.01 2.01 0 01-.589.241c-.32.058-.644.083-.968.076h-.563V69.006zm.262-.817h.243c.382.028.765-.034 1.118-.183a.955.955 0 00.426-.636c.074-.317.03-.56-.123-.68-.151-.12-.5-.197-1-.197h-.24l-.424 1.696zM78.501 71.754l-.303-1.57h-2.356l-1.046 1.57h-1.013l4.389-6.339 1.36 6.339h-1.03zm-2.093-2.405h1.646l-.262-1.393a2.087 2.087 0 01-.029-.303 2.914 2.914 0 01-.015-.38 3.03 3.03 0 01-.194.38c-.063.12-.123.227-.183.319l-.953 1.377h-.01zM80.904 71.754l.667-2.785-1.211-3.297h1.015l.757 2.072c.015.06.028.124.06.212.031.09.047.184.076.262l.18-.262c.06-.088.123-.167.183-.243l1.77-2.041h.968l-2.83 3.282-.664 2.784h-.971v.016zM90.119 68.734c0-.045.016-.183.047-.395.032-.212.029-.317.045-.437-.06.133-.12.261-.197.424a3.671 3.671 0 01-.261.42L87.42 72l-.754-3.31c-.031-.14-.06-.262-.076-.396a3.031 3.031 0 01-.031-.38c-.032.124-.076.262-.12.412-.053.149-.114.295-.184.437l-1.371 2.991h-.893l2.921-6.355.832 3.843c.02.1.036.201.045.303.015.136.047.317.076.524.104-.181.243-.393.424-.668.04-.051.076-.106.107-.165l2.633-3.842-.081 6.36h-.893l.073-3.025-.01.005zM91.726 71.744l1.45-6.099h3.313l-.193.849h-2.348l-.361 1.528h2.345l-.212.861h-2.348l-.468 1.968h2.347l-.212.893h-3.313zM96.144 71.754l1.51-6.339 2.879 3.722c.076.107.152.212.228.332.076.12.149.262.241.408l1.012-4.221h.895l-1.515 6.326-2.934-3.798-.225-.317a1.752 1.752 0 01-.183-.363l-1.013 4.234h-.892v.016h-.003zM105.992 66.478l-1.253 5.25h-.971l1.256-5.25h-1.573l.196-.848h4.117l-.199.848h-1.573zM107.005 70.516l.864-.361a.819.819 0 00.262.62c.2.15.446.226.696.212.269.009.532-.078.743-.243.21-.16.355-.39.408-.65.089-.363-.12-.682-.635-.952a1.042 1.042 0 00-.168-.092c-.573-.332-.937-.62-1.089-.892a1.298 1.298 0 01-.089-.968 2.1 2.1 0 01.785-1.21c.404-.31.9-.476 1.408-.47.367-.017.731.074 1.047.261a1.004 1.004 0 01.437.743l-.845.393a.913.913 0 00-.29-.424.74.74 0 00-.451-.136 1.09 1.09 0 00-.667.212.953.953 0 00-.364.56c-.091.364.165.712.757 1.028a.566.566 0 00.107.06c.404.177.754.46 1.013.817.156.31.188.667.091 1a2.394 2.394 0 01-.863 1.377 2.51 2.51 0 01-1.558.523 1.708 1.708 0 01-1.164-.364 1.188 1.188 0 01-.427-1.03l-.008-.014zM114.135 71.744l1.452-6.099h.968l-1.455 6.099h-.965zM116.493 71.754l1.515-6.339 2.879 3.722c.076.107.152.212.228.332l.243.408.997-4.232h.893l-1.516 6.326-2.934-3.797a12.803 12.803 0 00-.227-.317 1.761 1.761 0 01-.181-.364l-1.007 4.235h-.89v.026zM126.346 66.478l-1.256 5.25h-.971l1.259-5.25h-1.576l.197-.848h4.117l-.197.848h-1.573zM127.388 71.744l1.452-6.099h3.332l-.199.849h-2.345l-.364 1.528h2.348l-.215.861h-2.342l-.468 1.968h2.342l-.212.893h-3.329zM133.366 69.006l-.649 2.722h-.911l1.455-6.098h1.345c.3-.007.599.02.893.078a.979.979 0 01.5.262c.153.157.253.359.285.576.046.26.036.528-.029.785a2.203 2.203 0 01-.62 1.149c-.317.28-.713.455-1.133.5l1.376 2.769h-1.091l-1.309-2.722-.112-.021zm.243-.772h.181c.358.027.718-.035 1.047-.18a.98.98 0 00.408-.653c.078-.332.047-.575-.102-.711s-.471-.212-.955-.212h-.181l-.398 1.756zM136.467 71.744l1.452-6.099h3.316l-.199.849h-2.345l-.363 1.512h2.345l-.21.861h-2.347l-.678 2.86h-.971v.017zM144.457 71.754l-.303-1.57h-2.356l-1.046 1.57h-1.016l4.389-6.339 1.361 6.339h-1.029zm-2.093-2.405h1.651l-.275-1.393a2.058 2.058 0 01-.028-.303 2.829 2.829 0 01-.016-.38 8.884 8.884 0 01-.38.699l-.952 1.377zM151.767 67.13a1.984 1.984 0 00-.743-.524 2.244 2.244 0 00-.922-.18 2.651 2.651 0 00-1.74.635 2.995 2.995 0 00-1.013 1.665 1.947 1.947 0 00.21 1.633 1.509 1.509 0 001.345.636c.358.002.713-.065 1.047-.196a4.31 4.31 0 001.06-.576l-.262 1.12a3.364 3.364 0 01-.966.41 3.792 3.792 0 01-1.026.137 3.036 3.036 0 01-1.214-.228 2.111 2.111 0 01-.861-.68 2.155 2.155 0 01-.424-1.029 3.023 3.023 0 01.076-1.27c.105-.444.281-.87.523-1.258.246-.394.559-.742.924-1.028.35-.296.749-.526 1.18-.681.412-.15.847-.227 1.285-.228.329-.004.657.047.969.152.294.106.566.265.803.469l-.261 1.015.01.005zM151.856 71.744l1.453-6.099h3.316l-.197.849h-2.347l-.364 1.528h2.348l-.215.861h-2.345l-.468 1.968h2.345l-.212.893h-3.314zM134.243 60.335H127.6L136.831 27h6.642l-9.23 33.335zM130.793 28.047c-.452-.639-1.163-.957-2.133-.955H92.163l-1.8 6.543h33.196l-1.934 6.974H95.068v-.015h-6.642l-5.496 19.89h6.632l3.692-13.347h29.852a4.2 4.2 0 002.633-.953 4.445 4.445 0 001.62-2.355l3.693-13.348c.285-1 .194-1.8-.262-2.437l.003.003zM79.046 58.247a3.062 3.062 0 01-2.937 2.253H41.866c-.94 0-1.633-.32-2.094-.955-.46-.636-.562-1.421-.288-2.356l8.36-30.097h6.642l-7.459 26.865h26.57l7.459-26.865H87.7l-8.655 31.144v.01zM154.944 27.06l8.396 16.706-17.658 16.705 9.262-33.41z" fill="#fff"/><path fill-rule="evenodd" clip-rule="evenodd" d="M149.043 27.06l8.396 16.706-17.674 16.705 9.278-33.41z" fill="#fff"/></svg>