<svg width="200" height="100" fill="none" xmlns="http://www.w3.org/2000/svg"><path d="M47.148 63.303h-7.412l4.636-26.571h7.41l-4.634 26.57zM74.016 37.381c-1.462-.537-3.78-1.131-6.648-1.131-7.32 0-12.474 3.618-12.505 8.79-.061 3.817 3.69 5.937 6.496 7.21 2.867 1.3 3.842 2.148 3.842 3.307-.03 1.78-2.317 2.6-4.451 2.6-2.96 0-4.545-.422-6.954-1.413l-.976-.424-1.038 5.965c1.739.734 4.942 1.385 8.267 1.414 7.777 0 12.84-3.562 12.9-9.075.03-3.024-1.951-5.342-6.222-7.236-2.592-1.216-4.18-2.036-4.18-3.28.03-1.13 1.343-2.289 4.27-2.289 2.409-.056 4.18.48 5.52 1.018l.67.282 1.009-5.738z" fill="#fff"/><path fill-rule="evenodd" clip-rule="evenodd" d="M87.283 36.732h5.733l5.98 26.57h-6.863s-.672-3.053-.885-3.986h-9.516l-1.555 3.986H72.4l11.009-24.366c.763-1.724 2.106-2.204 3.874-2.204zm-.457 9.723s-2.348 5.908-2.959 7.434h6.16c-.304-1.328-1.708-7.688-1.708-7.688l-.518-2.29c-.218.59-.533 1.4-.746 1.947-.144.37-.241.62-.229.597z" fill="#fff"/><path d="M7.622 36.732h11.925c1.616.056 2.928.536 3.354 2.233l2.592 12.207v.004l.794 3.674 7.259-18.118h7.837l-11.65 26.542h-7.838L15.29 40.187c-2.28-1.236-4.88-2.23-7.789-2.919l.122-.536zM149.279 70.32c.194.166.403.333.605.5A24.944 24.944 0 01136.028 75C122.207 75 111 63.806 111 50s11.207-25 25.028-25c5.124 0 9.886 1.542 13.856 4.18-.202.167-.411.327-.605.5A26.93 26.93 0 00139.998 50a26.905 26.905 0 009.281 20.32zM166.965 25a24.944 24.944 0 00-13.856 4.18c.202.167.411.327.605.5A26.919 26.919 0 01162.995 50a26.912 26.912 0 01-9.274 20.32c-.194.166-.403.333-.605.5A24.944 24.944 0 00166.972 75C180.793 75 192 63.806 192 50s-11.214-25-25.035-25z" fill="#fff"/><path d="M151.496 30.354c-.319.25-.639.514-.945.785-5.277 4.583-8.614 11.333-8.614 18.861 0 7.528 3.337 14.278 8.614 18.861.306.271.626.528.945.785.32-.257.64-.514.946-.785 5.277-4.583 8.614-11.333 8.614-18.86 0-7.529-3.337-14.279-8.614-18.862-.306-.27-.626-.528-.946-.785z" fill="#fff"/></svg>