<svg width="200" height="100" fill="none" xmlns="http://www.w3.org/2000/svg"><path d="M166.271 59.17l-6.056-1.165c-.129 1.473-.497 2.745-1.101 3.496-.603.751-1.698 1.14-2.778 1.14a3.44 3.44 0 01-2.496-.98c-.672-.647-1.007-1.618-1.006-2.914v-9.561h11.349V41.46h-11.349v-7.022h-8.238v24.168c0 3.44.973 6.197 2.917 8.273 1.945 2.076 4.841 3.115 8.688 3.12 3.283 0 6.099-.938 8.067-2.814a10.891 10.891 0 002.003-2.6 14.356 14.356 0 001.596-5.098l-1.596-.318zM86.471 44.928a15.334 15.334 0 00-5.708-5.897c-2.377-1.438-5.146-2.153-8.305-2.146-3.112 0-5.88.715-8.302 2.146a15.334 15.334 0 00-5.709 5.898c-1.383 2.501-2.075 5.339-2.076 8.511-.001 3.173.688 6.013 2.069 8.52a15.332 15.332 0 005.708 5.882c2.422 1.438 5.19 2.157 8.303 2.157 3.163 0 5.931-.715 8.304-2.145a15.331 15.331 0 005.716-5.894c1.384-2.502 2.076-5.34 2.076-8.512 0-3.172-.692-6.012-2.076-8.52zm-7.078 13.306a8.37 8.37 0 01-2.847 3.282 7.913 7.913 0 01-4.087 1.142 7.915 7.915 0 01-4.087-1.142 8.368 8.368 0 01-2.846-3.282c-.693-1.427-1.04-3.092-1.038-4.994.001-1.902.347-3.567 1.038-4.994a7.76 7.76 0 012.846-3.282 7.915 7.915 0 014.087-1.141c1.436 0 2.847.393 4.087 1.14a7.762 7.762 0 012.847 3.283c.693 1.425 1.039 3.09 1.038 4.994-.001 1.905-.347 3.57-1.038 4.994zM132.671 57.254c-.437 1.657-1.237 2.977-2.401 3.96-1.164.983-2.764 1.475-4.799 1.475a9.828 9.828 0 01-3.893-.804 7.59 7.59 0 01-2.985-2.549c-.735-1.163-1.145-2.593-1.231-4.29h20.953c.087-.625.15-1.25.189-1.877.086-.666.129-1.337.13-2.01 0-2.948-.606-5.473-1.817-7.574a12.168 12.168 0 00-4.934-4.96c-2.114-1.16-4.6-1.74-7.458-1.74-3.071 0-5.752.738-8.045 2.212a15.464 15.464 0 00-5.383 5.898c-1.254 2.458-1.881 5.203-1.881 8.235 0 3.399.692 6.37 2.076 8.916a14.732 14.732 0 005.773 5.831c2.471 1.348 5.285 2.022 8.441 2.022 3.719 0 6.767-.894 9.145-2.68 2.423-1.789 4.131-4.202 5.124-7.24l-7.004-2.825zm-12.728-12.059a7.328 7.328 0 014.412-1.412 7.561 7.561 0 013.243.642c.888.335 1.656.94 2.205 1.735.584.77.904 1.72.909 2.698-.004.11-.027.219-.066.321h-13.174c.432-1.75 1.174-3.078 2.471-3.978v-.006zM90.497 69.325L100.187 30h8.757l-9.688 39.325h-8.759zM29.758 37.554l8.367 23.651 8.813-23.65h8.759l-12.51 31.764H33.129L21 37.554h8.758zM175.185 70a3.397 3.397 0 01-1.818-.499 3.645 3.645 0 01-1.282-1.35 3.793 3.793 0 01-.468-1.829c0-.641.161-1.271.468-1.829a3.644 3.644 0 011.282-1.35 3.591 3.591 0 011.821-.499c.639 0 1.267.172 1.822.498.53.323.969.781 1.276 1.332.306.564.466 1.2.466 1.847s-.16 1.283-.466 1.847a3.613 3.613 0 01-1.268 1.333 3.383 3.383 0 01-1.833.498zm0-.867c.486.009.965-.122 1.383-.379.407-.25.744-.607.977-1.034.233-.427.354-.909.352-1.399a2.841 2.841 0 00-.35-1.412 2.759 2.759 0 00-.971-1.012 2.706 2.706 0 00-2.767-.01 2.798 2.798 0 00-.964 1.012 2.9 2.9 0 00-.284 2.129c.18.72.629 1.338 1.248 1.718.416.256.892.388 1.376.383v.004zm.026-1.026a1.723 1.723 0 01-.869-.258 1.801 1.801 0 01-.632-.669 1.87 1.87 0 01-.228-.904c.001-.316.081-.627.234-.902a1.63 1.63 0 01.618-.618c.256-.147.545-.223.837-.221.366-.013.727.094 1.031.304.296.229.494.569.552.947l-.717.22a.924.924 0 00-.287-.558.83.83 0 00-.569-.211.934.934 0 00-.638.266 1.088 1.088 0 00-.315.544c-.05.21-.037.43.036.633.073.202.203.377.374.502.171.125.374.194.583.198a.886.886 0 00.698-.269c.157-.183.257-.41.287-.653l.69.263a1.885 1.885 0 01-.611 1.03 1.624 1.624 0 01-1.074.352v.004z" fill="#fff"/></svg>