<svg width="210" height="30" fill="none" xmlns="http://www.w3.org/2000/svg">
<path fill-rule="evenodd" clip-rule="evenodd" d="M18.764 1.394c4.946 2.095 8.33 6.554 8.33 11.702 0 5.15-3.386 9.609-8.331 11.701-4.945-2.092-8.332-6.551-8.332-11.701s3.387-9.608 8.333-11.702z" fill="#002ED9"/>
<path fill-rule="evenodd" clip-rule="evenodd" d="M18.77 1.396C20.484.486 22.439 0 24.507 0c7.187 0 13.022 5.87 13.022 13.099s-5.835 13.098-13.022 13.098c-2.068 0-4.023-.485-5.738-1.396 4.322-2.094 7.284-6.553 7.284-11.702s-2.96-9.608-7.283-11.703z" fill="#0099FA"/><path fill-rule="evenodd" clip-rule="evenodd" d="M18.76 24.8c-1.715.91-3.67 1.397-5.737 1.397H5.337l-3.46 3.48c-.313.315-.786.41-1.197.239A1.106 1.106 0 010 28.893V1.69C0 .757.753 0 1.68 0h11.384c2.053.006 3.995.492 5.698 1.396-4.324 2.094-7.285 6.553-7.285 11.702 0 5.15 2.961 9.609 7.284 11.701z" fill="#1A4DDE"/>
<path fill-rule="evenodd" clip-rule="evenodd" class="prefix__logo__letter-1" d="M110.169 21.995c-3.757-.073-6.781-3.12-6.781-6.886 0-3.767 3.035-6.825 6.781-6.825 3.745 0 6.792 3.058 6.792 6.825a7.5 7.5 0 01-.088 1.12H106.74c.437 1.583 1.867 2.737 3.483 2.777 1.518-.003 2.785-.369 3.789-1.256l2.021 2.104c-.11.12-.23.235-.35.343-1.365 1.25-3.254 1.8-5.514 1.798zm17.974-1.187l-.459.247c-3.254 1.81-7.6 1.083-7.775-3.305l-.033-.854V11.25h-2.14V8.559h2.228l.251-4.581h2.883v4.58h3.341v2.692h-3.341v5.886h.011c-.011 2.287 1.801 2.032 2.784 1.404l2.25 2.268zm-41.255.17a6.713 6.713 0 01-3.462.956c-3.745 0-6.792-3.059-6.792-6.825 0-3.767 3.047-6.825 6.792-6.825 1.256 0 2.435.345 3.45.948.416.247 1.235.886 1.737 1.747l-2.25 2.21c-.59-1.156-1.66-1.937-2.937-1.937-1.91 0-3.309 1.728-3.309 3.857 0 2.128 1.398 3.857 3.31 3.857 1.277 0 2.347-.78 2.937-1.939l2.249 2.208c-.502.858-1.321 1.495-1.736 1.742h.01zM68.226 8.284c3.745 0 6.781 3.058 6.781 6.825 0 3.766-3.036 6.825-6.781 6.825-3.746 0-6.792-3.059-6.792-6.825 0-3.767 3.046-6.825 6.792-6.825zM93.8 13.99l1.824-2.308 3.079-3.137h4.455l-6.137 6.32 6.65 6.857h-4.455l-4.422-4.56-.7.566-.01 3.994h-3.32V3.978h3.32v6.318L93.8 13.99zM53.124 3.978c3.778 0 6.835 3.42 6.835 7.217v.005c0 3.797-3.057 7.37-6.835 7.37h-2.501v3.152h-3.778V3.978h6.279zm15.102 7.274c1.9 0 3.265 1.728 3.265 3.857 0 2.128-1.365 3.857-3.265 3.857-1.911 0-3.33-1.729-3.33-3.857 0-2.13 1.419-3.857 3.33-3.857zm-12.001-.056c0-1.887-1.398-3.758-3.265-3.758h-2.337v7.671h2.337c1.867 0 3.265-1.67 3.265-3.91v-.003zm57.34 2.794c-.437-1.584-1.835-2.79-3.396-2.79-1.551 0-2.992 1.206-3.429 2.79h6.825z" fill="#fff"/><path fill-rule="evenodd" clip-rule="evenodd" class="prefix__logo__letter-2" d="M152.103 10.151a6.828 6.828 0 014.75-1.913c3.8 0 6.89 3.105 6.89 6.93 0 3.824-3.09 6.929-6.89 6.929a6.832 6.832 0 01-4.75-1.912v6.37h-2.14V8.603h2.14v1.549zm22.189 10.87l-.47.246c-3.297 1.839-6.89.747-7.054-3.512v-7.242h-2.49V8.616h2.49v-4.72h2.14v4.72h3.822v1.897h-3.822v6.835c0 3.308 2.687 3.055 3.79 2.072l1.594 1.6zm13.584-12.783c3.8 0 6.89 3.105 6.89 6.93 0 3.824-3.09 6.929-6.89 6.929s-6.89-3.105-6.89-6.93c0-3.824 3.09-6.929 6.89-6.929zm-49.489-4.525c5.024 0 9.086 4.094 9.086 9.139 0 5.044-4.062 9.14-9.086 9.14-5.012 0-9.085-4.096-9.085-9.14 0-5.045 4.073-9.139 9.085-9.139zm40.196 4.889h-2.14v13.117h2.14V8.602zm29.287 6.566c0-2.878-1.496-5.082-4.138-5.082-2.173 0-4.74 1.269-4.74 5.08v6.553h-2.096V8.602h2.096v1.649c1.289-1.58 3.244-2.013 4.893-2.013 3.723 0 6.147 2.33 6.115 6.531 0 .107-.011.324-.022.534v6.416h-2.108v-6.552zm-19.994-5.214c2.697 0 4.892 2.336 4.892 5.213 0 2.878-2.195 5.214-4.892 5.214-2.697 0-4.881-2.336-4.881-5.213 0-2.878 2.184-5.214 4.881-5.214zm-31.023 0c2.697 0 4.881 2.336 4.881 5.213 0 2.878-2.184 5.214-4.881 5.214s-4.881-2.336-4.881-5.213c0-2.878 2.184-5.214 4.881-5.214zm-18.466-4.342c3.746 0 6.782 3.244 6.782 7.24 0 3.995-3.036 7.24-6.782 7.24-3.734 0-6.781-3.244-6.781-7.24s3.047-7.24 6.781-7.24zm39.126-1.717c.808 0 1.474.667 1.474 1.489 0 .82-.666 1.487-1.474 1.487a1.488 1.488 0 010-2.976z" fill="#fff"/></svg>